<svg width="100" height="52" viewBox="0 0 100 52" fill="none" xmlns="http://www.w3.org/2000/svg">
<path d="M99.0154 8.57005C102.664 19.1271 83.5566 35.3114 56.3376 44.7188C29.1185 54.1262 4.09532 53.1942 0.446623 42.6372C-3.20207 32.0802 15.9054 15.8958 43.1245 6.48846C70.3435 -2.91892 95.3667 -1.98696 99.0154 8.57005Z" fill="#FAFAFA"/>
<path d="M42.083 16.6036L41.8008 5.4549H41.0312C40.8088 6.45795 40.5694 7.09102 40.3128 7.35412C40.0563 7.61722 39.7056 7.74876 39.261 7.74876C38.7992 7.74876 37.9868 7.48567 36.8237 6.95948C35.6778 6.41684 34.7029 6.04686 33.899 5.84954C32.8386 5.58644 31.744 5.4549 30.6152 5.4549C27.5195 5.4549 24.954 6.39217 22.9187 8.26673C20.8834 10.1413 19.8657 12.4105 19.8657 15.0743C19.8657 16.3797 20.1225 17.5933 20.6361 18.715H33.5159C30.8279 17.4311 29.0999 16.53 28.3319 16.0116C27.2373 15.2552 26.442 14.4906 25.946 13.7178C25.5868 13.1422 25.4072 12.4845 25.4072 11.7445C25.4072 10.577 25.9118 9.54933 26.9209 8.66138C27.9471 7.75699 29.3324 7.30479 31.077 7.30479C33.3346 7.30479 35.4298 8.15985 37.3625 9.86998C39.3123 11.5637 40.5352 13.8082 41.0312 16.6036H42.083Z" fill="#3636DB"/>
<path d="M43.8616 27.555H32.7106C34.0729 28.2505 35.0763 28.8425 35.7206 29.3309C36.6099 29.9886 37.2684 30.6875 37.696 31.4274C38.1407 32.1674 38.363 32.932 38.363 33.7213C38.363 35.0532 37.7901 36.2207 36.6441 37.2237C35.5153 38.2268 33.9931 38.7283 32.0775 38.7283C29.5975 38.7283 27.28 37.7993 25.125 35.9412C22.9871 34.0666 21.5419 31.3534 20.7893 27.8016H19.8401V40.4302H20.7893C21.0972 39.756 21.4991 39.2545 21.9951 38.9256C22.4911 38.5968 22.9614 38.4323 23.4061 38.4323C23.9363 38.4323 24.6119 38.5968 25.4329 38.9256C26.9038 39.5176 28.1267 39.9205 29.1015 40.1342C30.0764 40.348 31.1112 40.4549 32.2058 40.4549C35.6949 40.4549 38.5683 39.4518 40.8259 37.4457C43.1007 35.4232 44.238 33.0142 44.238 30.2188C44.238 29.2867 44.1126 28.3988 43.8616 27.555Z" fill="#3636DB"/>
<path d="M53.1075 27.555H61.4711V33.0307C61.4711 34.8723 61.548 35.9987 61.7019 36.4098C61.873 36.8209 62.1808 37.158 62.6255 37.4211C63.0702 37.6842 63.7886 37.8157 64.7806 37.8157H66.8586C70.1082 37.8157 72.708 37.0922 74.6577 35.6452C76.6246 34.1981 78.0357 31.9947 78.8908 29.0349H79.8401L78.2751 39.6656H48.2074V38.753H49.3619C50.371 38.753 51.1834 38.5803 51.7991 38.235C52.2438 38.0048 52.5858 37.6102 52.8253 37.0511C53.0134 36.6564 53.1075 35.6205 53.1075 33.9433V27.555Z" fill="#3636DB"/>
<path d="M67.9622 27.555C68.4009 28.6206 68.7001 29.8949 68.8597 31.3781H69.8346V27.555H67.9622Z" fill="#3636DB"/>
<path d="M69.8346 18.715V13.8657H68.8597C68.6505 15.8523 68.2312 17.4687 67.602 18.715H69.8346Z" fill="#3636DB"/>
<path d="M61.4711 18.715H53.1075V11.9419C53.1075 10.4291 53.0647 9.5 52.9792 9.15468C52.8082 8.57916 52.4918 8.13519 52.03 7.82276C51.3801 7.36234 50.4907 7.13213 49.3619 7.13213H48.2074V6.21952H77.3259V16.1103H76.351C75.855 13.6931 75.1537 11.9583 74.2473 10.9059C73.3579 9.85353 72.0922 9.08069 70.4503 8.58738C69.4925 8.2914 67.6967 8.14341 65.0628 8.14341H61.4711V18.715Z" fill="#3636DB"/>
<path d="M22.8802 24.3685C22.8802 24.2804 22.8661 24.2012 22.8379 24.1311C22.812 24.0588 22.7626 23.9932 22.6897 23.9344C22.6168 23.8734 22.5145 23.8135 22.3828 23.7547C22.2511 23.6959 22.0806 23.6349 21.8713 23.5715C21.6385 23.4992 21.4174 23.4178 21.2081 23.3274C21.0012 23.2369 20.8177 23.1318 20.6578 23.012C20.5003 22.8899 20.3756 22.7485 20.2839 22.588C20.1945 22.4275 20.1499 22.241 20.1499 22.0284C20.1499 21.8227 20.1969 21.6361 20.291 21.4688C20.385 21.2993 20.5167 21.1546 20.6861 21.0347C20.8554 20.9126 21.0553 20.8188 21.2857 20.7532C21.5186 20.6877 21.7737 20.6549 22.0512 20.6549C22.4298 20.6549 22.7603 20.7204 23.0425 20.8516C23.3247 20.9827 23.5434 21.1625 23.6986 21.3908C23.8562 21.6192 23.9349 21.8803 23.9349 22.1743H22.8837C22.8837 22.0296 22.852 21.9029 22.7885 21.7944C22.7273 21.6836 22.6333 21.5966 22.5063 21.5333C22.3816 21.47 22.2241 21.4383 22.0336 21.4383C21.8501 21.4383 21.6973 21.4654 21.575 21.5197C21.4527 21.5717 21.361 21.6429 21.2998 21.7334C21.2387 21.8215 21.2081 21.921 21.2081 22.0318C21.2081 22.1155 21.2293 22.1912 21.2716 22.259C21.3163 22.3269 21.3822 22.3902 21.4692 22.449C21.5562 22.5078 21.6632 22.5631 21.7902 22.6152C21.9172 22.6672 22.0642 22.718 22.2311 22.7678C22.511 22.8492 22.7567 22.9407 22.9684 23.0425C23.1824 23.1442 23.3611 23.2584 23.5046 23.385C23.648 23.5116 23.7562 23.6552 23.8291 23.8157C23.902 23.9763 23.9385 24.1583 23.9385 24.3618C23.9385 24.5766 23.895 24.7687 23.808 24.9383C23.7209 25.1079 23.5951 25.2515 23.4305 25.369C23.2659 25.4866 23.0695 25.5759 22.8414 25.637C22.6133 25.698 22.3581 25.7285 22.0759 25.7285C21.8219 25.7285 21.5715 25.6969 21.3245 25.6336C21.0776 25.568 20.853 25.4696 20.6508 25.3385C20.4509 25.2074 20.291 25.0401 20.171 24.8366C20.0511 24.6331 19.9911 24.3923 19.9911 24.1142H21.0529C21.0529 24.2679 21.0776 24.3979 21.127 24.5042C21.1764 24.6105 21.2458 24.6964 21.3351 24.762C21.4268 24.8275 21.535 24.875 21.6597 24.9044C21.7867 24.9338 21.9254 24.9485 22.0759 24.9485C22.2593 24.9485 22.4099 24.9236 22.5274 24.8739C22.6474 24.8241 22.7356 24.7552 22.792 24.667C22.8508 24.5788 22.8802 24.4793 22.8802 24.3685Z" fill="#EC3130"/>
<path d="M27.0629 20.7227V25.6607H26.0082V20.7227H27.0629ZM28.6433 20.7227V21.5197H24.4525V20.7227H28.6433Z" fill="#EC3130"/>
<path d="M32.191 20.7227H33.2458V23.9853C33.2458 24.3652 33.1611 24.6851 32.9918 24.9451C32.8248 25.2051 32.5932 25.4007 32.2968 25.5318C32.0029 25.663 31.6642 25.7285 31.2809 25.7285C30.8976 25.7285 30.5566 25.663 30.2579 25.5318C29.9616 25.4007 29.7288 25.2051 29.5594 24.9451C29.3925 24.6851 29.309 24.3652 29.309 23.9853V20.7227H30.3673V23.9853C30.3673 24.2069 30.4037 24.3878 30.4766 24.5279C30.5495 24.6681 30.6542 24.771 30.7906 24.8366C30.9293 24.9021 31.0928 24.9349 31.2809 24.9349C31.4737 24.9349 31.6372 24.9021 31.7712 24.8366C31.9076 24.771 32.0111 24.6681 32.0817 24.5279C32.1546 24.3878 32.191 24.2069 32.191 23.9853V20.7227Z" fill="#EC3130"/>
<path d="M35.8023 25.6607H34.684L34.6911 24.8671H35.8023C36.0798 24.8671 36.3138 24.8072 36.5042 24.6873C36.6947 24.5652 36.8382 24.3878 36.9346 24.1549C37.0334 23.922 37.0828 23.6405 37.0828 23.3104V23.0696C37.0828 22.8164 37.0545 22.5937 36.9981 22.4015C36.944 22.2093 36.8629 22.0476 36.7547 21.9165C36.6465 21.7854 36.5137 21.687 36.3561 21.6215C36.1985 21.5536 36.0174 21.5197 35.8128 21.5197H34.6629V20.7227H35.8128C36.1562 20.7227 36.4701 20.7792 36.7547 20.8923C37.0416 21.0031 37.2897 21.1625 37.499 21.3705C37.7083 21.5785 37.8694 21.8272 37.9823 22.1166C38.0975 22.4038 38.1551 22.7237 38.1551 23.0764V23.3104C38.1551 23.6609 38.0975 23.9808 37.9823 24.2702C37.8694 24.5596 37.7083 24.8083 37.499 25.0163C37.2921 25.2221 37.044 25.3815 36.7547 25.4945C36.4678 25.6053 36.1503 25.6607 35.8023 25.6607ZM35.2837 20.7227V25.6607H34.2254V20.7227H35.2837Z" fill="#EC3130"/>
<path d="M39.5828 20.7227L40.6552 22.9746L41.7276 20.7227H42.8811L41.1914 23.8632V25.6607H40.119V23.8632L38.4258 20.7227H39.5828Z" fill="#EC3130"/>
<path d="M48.8125 24.8671V25.6607H46.0786V24.8671H48.8125ZM46.4243 20.7227V25.6607H45.3661V20.7227H46.4243ZM48.4562 22.7339V23.5071H46.0786V22.7339H48.4562ZM48.809 20.7227V21.5197H46.0786V20.7227H48.809Z" fill="#EC3130"/>
<path d="M53.7184 20.7227V25.6607H52.6601L50.5965 22.3506V25.6607H49.5382V20.7227H50.5965L52.6636 24.0362V20.7227H53.7184Z" fill="#EC3130"/>
<path d="M58.8182 23.0798V25.0367C58.7383 25.1294 58.6148 25.23 58.4478 25.3385C58.2809 25.4448 58.0657 25.5363 57.8023 25.6132C57.5389 25.6901 57.2203 25.7285 56.8463 25.7285C56.5147 25.7285 56.2125 25.6765 55.9397 25.5725C55.667 25.4662 55.4318 25.3114 55.2342 25.1079C55.039 24.9044 54.8885 24.6557 54.7827 24.3618C54.6769 24.0656 54.624 23.7276 54.624 23.3477V23.0391C54.624 22.6592 54.6745 22.3212 54.7757 22.025C54.8791 21.7288 55.0261 21.479 55.2166 21.2755C55.4071 21.072 55.634 20.9172 55.8974 20.8109C56.1608 20.7046 56.4536 20.6515 56.7758 20.6515C57.2226 20.6515 57.5895 20.7216 57.8764 20.8618C58.1633 20.9997 58.382 21.1919 58.5325 21.4383C58.6854 21.6825 58.7794 21.9629 58.8147 22.2794H57.7882C57.7623 22.1121 57.7129 21.9663 57.64 21.8419C57.5671 21.7175 57.4625 21.6203 57.3261 21.5502C57.192 21.4801 57.018 21.4451 56.804 21.4451C56.6276 21.4451 56.4701 21.4801 56.3313 21.5502C56.1949 21.6181 56.0797 21.7187 55.9856 21.8521C55.8915 21.9855 55.8198 22.1505 55.7704 22.3472C55.721 22.5439 55.6963 22.7723 55.6963 23.0323V23.3477C55.6963 23.6055 55.7222 23.8338 55.774 24.0328C55.8257 24.2295 55.9021 24.3957 56.0032 24.5313C56.1067 24.6647 56.2337 24.7653 56.3842 24.8332C56.5347 24.901 56.7099 24.9349 56.9098 24.9349C57.0768 24.9349 57.2156 24.9214 57.3261 24.8942C57.439 24.8671 57.5295 24.8343 57.5977 24.7959C57.6683 24.7552 57.7223 24.7167 57.76 24.6806V23.8056H56.7934V23.0798H58.8182Z" fill="#EC3130"/>
<path d="M63.0821 24.8671V25.6607H60.4964V24.8671H63.0821ZM60.8386 20.7227V25.6607H59.7803V20.7227H60.8386Z" fill="#EC3130"/>
<path d="M64.9225 20.7227V25.6607H63.8678V20.7227H64.9225Z" fill="#EC3130"/>
<path d="M68.696 24.3685C68.696 24.2804 68.6819 24.2012 68.6537 24.1311C68.6278 24.0588 68.5784 23.9932 68.5055 23.9344C68.4326 23.8734 68.3303 23.8135 68.1986 23.7547C68.0669 23.6959 67.8964 23.6349 67.6871 23.5715C67.4543 23.4992 67.2332 23.4178 67.0239 23.3274C66.817 23.2369 66.6336 23.1318 66.4736 23.012C66.3161 22.8899 66.1914 22.7485 66.0997 22.588C66.0104 22.4275 65.9657 22.241 65.9657 22.0284C65.9657 21.8227 66.0127 21.6361 66.1068 21.4688C66.2008 21.2993 66.3325 21.1546 66.5019 21.0347C66.6712 20.9126 66.8711 20.8188 67.1015 20.7532C67.3344 20.6877 67.5895 20.6549 67.867 20.6549C68.2457 20.6549 68.5761 20.7204 68.8583 20.8516C69.1405 20.9827 69.3592 21.1625 69.5144 21.3908C69.672 21.6192 69.7508 21.8803 69.7508 22.1743H68.6995C68.6995 22.0296 68.6678 21.9029 68.6043 21.7944C68.5431 21.6836 68.4491 21.5966 68.3221 21.5333C68.1974 21.47 68.0399 21.4383 67.8494 21.4383C67.666 21.4383 67.5131 21.4654 67.3908 21.5197C67.2685 21.5717 67.1768 21.6429 67.1157 21.7334C67.0545 21.8215 67.0239 21.921 67.0239 22.0318C67.0239 22.1155 67.0451 22.1912 67.0874 22.259C67.1321 22.3269 67.198 22.3902 67.285 22.449C67.372 22.5078 67.479 22.5631 67.606 22.6152C67.733 22.6672 67.88 22.718 68.0469 22.7678C68.3268 22.8492 68.5725 22.9407 68.7842 23.0425C68.9982 23.1442 69.1769 23.2584 69.3204 23.385C69.4638 23.5116 69.572 23.6552 69.6449 23.8157C69.7178 23.9763 69.7543 24.1583 69.7543 24.3618C69.7543 24.5766 69.7108 24.7687 69.6238 24.9383C69.5367 25.1079 69.4109 25.2515 69.2463 25.369C69.0817 25.4866 68.8853 25.5759 68.6572 25.637C68.4291 25.698 68.1739 25.7285 67.8917 25.7285C67.6377 25.7285 67.3873 25.6969 67.1404 25.6336C66.8934 25.568 66.6688 25.4696 66.4666 25.3385C66.2667 25.2074 66.1068 25.0401 65.9868 24.8366C65.8669 24.6331 65.8069 24.3923 65.8069 24.1142H66.8687C66.8687 24.2679 66.8934 24.3979 66.9428 24.5042C66.9922 24.6105 67.0616 24.6964 67.1509 24.762C67.2427 24.8275 67.3508 24.875 67.4755 24.9044C67.6025 24.9338 67.7412 24.9485 67.8917 24.9485C68.0752 24.9485 68.2257 24.9236 68.3433 24.8739C68.4632 24.8241 68.5514 24.7552 68.6078 24.667C68.6666 24.5788 68.696 24.4793 68.696 24.3685Z" fill="#EC3130"/>
<path d="M74.0075 22.7339V23.5275H71.3266V22.7339H74.0075ZM71.6405 20.7227V25.6607H70.5823V20.7227H71.6405ZM74.7624 20.7227V25.6607H73.7077V20.7227H74.7624Z" fill="#EC3130"/>
</svg>
