<svg width="113" height="42" viewBox="0 0 113 42" fill="none" xmlns="http://www.w3.org/2000/svg">
<g clip-path="url(#clip0_6_2132)">
<path d="M58.3397 13.9113L63.7158 13.5636C63.8385 14.4433 64.0633 15.0979 64.4313 15.5684C65.0241 16.3049 65.8417 16.6732 66.9251 16.6732C67.7223 16.6732 68.356 16.489 68.7853 16.1003C69.1941 15.7935 69.4394 15.3025 69.4394 14.791C69.4394 14.3 69.2146 13.8295 68.8262 13.5226C68.4173 13.1544 67.4566 12.7862 65.9439 12.4588C63.4705 11.9065 61.6921 11.17 60.6496 10.2289C59.6071 9.34925 59.0143 8.0604 59.0552 6.68972C59.0552 5.74866 59.3414 4.8076 59.8728 4.0302C60.4861 3.15051 61.3242 2.45494 62.3258 2.06625C63.4092 1.59571 64.9219 1.35022 66.8229 1.35022C69.1532 1.35022 70.9316 1.77983 72.1581 2.65952C73.3846 3.51875 74.1205 4.90989 74.3453 6.81247L69.0306 7.11934C68.8875 6.30102 68.6013 5.70774 68.1312 5.31905C67.661 4.93035 67.0478 4.74623 66.2505 4.74623C65.5964 4.74623 65.1058 4.88943 64.7788 5.15538C64.4721 5.40088 64.2677 5.76912 64.2882 6.17828C64.2882 6.48514 64.4517 6.77155 64.697 6.95567C64.9627 7.20117 65.5964 7.42621 66.598 7.63078C69.0715 8.16269 70.8294 8.69459 71.9128 9.24696C72.9962 9.79932 73.773 10.4744 74.2431 11.2723C74.7337 12.0906 74.979 13.0317 74.9586 13.9932C74.9586 15.1388 74.6315 16.2845 73.9774 17.246C73.3028 18.2484 72.3625 19.0258 71.2587 19.4963C70.0935 20.0078 68.6217 20.2737 66.8638 20.2737C63.7567 20.2737 61.6104 19.6805 60.4043 18.4735C59.1983 17.2664 58.4828 15.7526 58.3397 13.9113ZM1.28781 19.9669V1.67755H10.7113C12.4488 1.67755 13.7979 1.82075 14.7178 2.12762C15.6172 2.41403 16.4144 3.00731 16.9459 3.80516C17.5387 4.68485 17.8249 5.70774 17.8045 6.77155C17.8658 8.57185 16.9459 10.2903 15.3719 11.1905C14.7587 11.5382 14.0841 11.7837 13.3891 11.9065C13.9001 12.0497 14.4112 12.2952 14.8609 12.5816C15.2084 12.868 15.4946 13.1953 15.7603 13.5431C16.0669 13.8909 16.3327 14.2796 16.5575 14.6887L19.2967 19.9873H12.8781L9.85275 14.3614C9.46436 13.6454 9.1373 13.1749 8.83068 12.9498C8.42185 12.6634 7.93126 12.5202 7.44067 12.5202H6.95007V19.9464H1.28781V19.9669ZM6.95007 9.08329H9.34172C9.85275 9.04238 10.3433 8.96055 10.8339 8.8378C11.2019 8.77643 11.5289 8.57185 11.7538 8.26498C12.3057 7.5285 12.224 6.48514 11.5494 5.85095C11.1814 5.54408 10.466 5.38042 9.44392 5.38042H6.95007V9.08329ZM0 35.6376L5.37609 35.2898C5.49873 36.1695 5.72359 36.8242 6.09153 37.2947C6.66389 38.0312 7.50199 38.4199 8.58538 38.4199C9.3826 38.4199 10.0163 38.2357 10.4456 37.8471C10.8544 37.5197 11.0997 37.0492 11.0997 36.5377C11.0997 36.0468 10.8748 35.5762 10.4864 35.2694C10.0776 34.9011 9.11686 34.5329 7.58376 34.2055C5.11035 33.6532 3.33195 32.9167 2.28944 31.9756C1.24692 31.096 0.654125 29.8071 0.695007 28.4364C0.695007 27.4954 0.981187 26.5543 1.51266 25.7769C2.1259 24.8972 2.964 24.2017 3.96563 23.813C5.04902 23.3424 6.56169 23.0969 8.46274 23.0969C10.7931 23.0969 12.5715 23.5265 13.7979 24.4062C15.0244 25.2859 15.7399 26.6566 15.9647 28.5592L10.65 28.866C10.5069 28.0477 10.2207 27.4545 9.75054 27.0658C9.30083 26.6771 8.66715 26.4929 7.86994 26.5134C7.21581 26.5134 6.72522 26.6566 6.39816 26.943C6.07109 27.1885 5.88712 27.5567 5.90756 27.9659C5.90756 28.2728 6.07109 28.5592 6.31639 28.7433C6.58213 28.9888 7.21581 29.2138 8.21744 29.4184C10.6908 29.9503 12.4488 30.4822 13.5322 31.0346C14.6156 31.5869 15.3924 32.2621 15.8625 33.0599C16.3531 33.8782 16.5984 34.8193 16.5984 35.7603C16.5984 36.906 16.2509 38.0312 15.6172 38.9927C14.9427 39.9951 14.0024 40.7725 12.8985 41.2431C11.7334 41.7545 10.2616 42.0205 8.50362 42.0205C5.39653 42.0205 3.25018 41.4272 2.04414 40.2202C0.838097 38.9927 0.163531 37.4788 0 35.6376H0Z" fill="white"/>
<path d="M27.187 34.2055L32.1339 35.699C31.8681 36.9469 31.3162 38.1335 30.5599 39.1768C29.8649 40.0974 28.945 40.8134 27.9025 41.284C26.8395 41.7545 25.4904 42 23.8551 42C21.8723 42 20.237 41.7136 18.99 41.1408C17.7227 40.5679 16.6393 39.545 15.7194 38.0925C14.7996 36.64 14.3499 34.7784 14.3499 32.5075C14.3499 29.4798 15.1471 27.1476 16.7619 25.5314C18.3768 23.9152 20.6458 23.0969 23.5894 23.0969C25.8992 23.0969 27.6981 23.5675 29.0268 24.4881C30.335 25.4291 31.3162 26.8612 31.9703 28.7842L26.9826 29.8889C26.86 29.4593 26.676 29.0297 26.4307 28.6615C26.1241 28.2318 25.7357 27.9045 25.2656 27.659C24.7954 27.4135 24.2639 27.3112 23.7325 27.3112C22.4446 27.3112 21.4635 27.8227 20.7889 28.866C20.2779 29.623 20.0121 30.83 20.0121 32.4666C20.0121 34.492 20.3187 35.8831 20.932 36.64C21.5452 37.397 22.4038 37.7652 23.528 37.7652C24.6114 37.7652 25.4291 37.4583 25.981 36.8651C26.5329 36.2309 26.9417 35.3512 27.187 34.2055ZM38.7364 23.4038H44.3783V29.8071H50.5516V23.4038H56.2343V41.6931H50.5516V34.2874H44.3783V41.6931H38.7364V23.4038V23.4038Z" fill="white"/>
<path d="M55.4575 32.5485C55.4575 29.5616 56.2956 27.2294 57.9514 25.5723C59.6071 23.9152 61.9374 23.0765 64.9014 23.0765C67.9472 23.0765 70.2775 23.8948 71.9333 25.5314C73.589 27.1681 74.4067 29.4593 74.4067 32.4053C74.4067 34.5533 74.0387 36.2923 73.3233 37.6629C72.6283 39.0132 71.5449 40.1179 70.2162 40.8544C68.8466 41.6113 67.15 42 65.1263 42C63.0617 42 61.3651 41.6727 60.016 41.018C58.6259 40.3225 57.4812 39.2382 56.7249 37.9084C55.8868 36.4764 55.4575 34.6965 55.4575 32.5485ZM61.0993 32.5689C61.0993 34.4101 61.4468 35.7399 62.1214 36.5582C62.796 37.3561 63.7363 37.7652 64.9219 37.7652C66.1279 37.7652 67.0682 37.3765 67.7428 36.5787C68.4174 35.7808 68.7444 34.3692 68.7444 32.3234C68.7444 30.605 68.3969 29.3366 67.7019 28.5592C67.0069 27.7613 66.0666 27.3726 64.881 27.3726C63.8385 27.3317 62.8369 27.7818 62.1419 28.5796C61.4468 29.3775 61.0993 30.7073 61.0993 32.5689V32.5689ZM80.1916 32.5485C80.1916 29.5616 81.0297 27.2294 82.6855 25.5723C84.3412 23.9152 86.6715 23.0765 89.6355 23.0765C92.6813 23.0765 95.0321 23.8948 96.6674 25.5314C98.3027 27.1681 99.1408 29.4593 99.1408 32.4053C99.1408 34.5533 98.7728 36.2923 98.0574 37.6629C97.3624 39.0132 96.279 40.1179 94.9503 40.8544C93.5807 41.6113 91.8841 42 89.8604 42C87.7958 42 86.0992 41.6727 84.75 41.018C83.36 40.3225 82.2153 39.2382 81.459 37.9084C80.6209 36.4764 80.1916 34.6965 80.1916 32.5485V32.5485ZM85.8334 32.5689C85.8334 34.4101 86.1809 35.7399 86.8555 36.5582C87.5301 37.3561 88.4704 37.7652 89.656 37.7652C90.862 37.7652 91.8023 37.3765 92.4769 36.5787C93.1514 35.7808 93.4785 34.3692 93.4785 32.3234C93.4785 30.605 93.131 29.3366 92.436 28.5592C91.741 27.7613 90.8007 27.3726 89.6151 27.3726C88.5726 27.3317 87.5505 27.7818 86.8759 28.5796C86.1809 29.3775 85.8334 30.7073 85.8334 32.5689V32.5689Z" fill="white"/>
<path d="M98.5479 23.4038H104.19V37.1924H113V41.6931H98.5275V23.4038H98.5479Z" fill="white"/>
<path d="M92.3294 22.3483C98.0095 18.0644 99.7611 10.8026 96.2416 6.1285C92.7222 1.45442 85.2644 1.1381 79.5843 5.42197C73.9042 9.70585 72.1526 16.9677 75.6721 21.6418C79.1916 26.3159 86.6493 26.6322 92.3294 22.3483Z" fill="white"/>
<path d="M92.3294 22.3483C98.0095 18.0644 99.7611 10.8025 96.2416 6.12847C92.7222 1.45439 85.2644 1.13807 79.5843 5.42194C73.9042 9.70582 72.1526 16.9677 75.6721 21.6418C79.1916 26.3158 86.6493 26.6322 92.3294 22.3483Z" fill="white"/>
<path d="M92.3294 22.3483C98.0095 18.0644 99.7611 10.8025 96.2416 6.12847C92.7222 1.45439 85.2644 1.13807 79.5843 5.42194C73.9042 9.70582 72.1526 16.9677 75.6721 21.6418C79.1916 26.3158 86.6493 26.6322 92.3294 22.3483Z" fill="white" stroke="white" stroke-width="4" stroke-miterlimit="10"/>
<path d="M92.3294 22.3483C98.0095 18.0644 99.7611 10.8025 96.2416 6.12847C92.7222 1.45439 85.2644 1.13807 79.5843 5.42194C73.9042 9.70582 72.1526 16.9677 75.6721 21.6418C79.1916 26.3158 86.6493 26.6322 92.3294 22.3483Z" stroke="white" stroke-width="4" stroke-miterlimit="10"/>
<path d="M92.3294 22.3483C98.0095 18.0644 99.7611 10.8025 96.2416 6.12847C92.7222 1.45439 85.2644 1.13807 79.5843 5.42194C73.9042 9.70582 72.1526 16.9677 75.6721 21.6418C79.1916 26.3158 86.6493 26.6322 92.3294 22.3483Z" fill="white" stroke="white" stroke-width="4" stroke-miterlimit="10"/>
<path d="M92.3294 22.3483C98.0095 18.0644 99.7611 10.8025 96.2416 6.12847C92.7222 1.45439 85.2644 1.13807 79.5843 5.42194C73.9042 9.70582 72.1526 16.9677 75.6721 21.6418C79.1916 26.3158 86.6493 26.6322 92.3294 22.3483Z" stroke="white" stroke-width="4" stroke-miterlimit="10"/>
<path d="M80.212 12.5406L82.2561 11.1086L84.7704 14.6887C85.1997 15.2615 85.5267 15.8753 85.772 16.5504C85.9151 17.0618 85.8742 17.6142 85.6698 18.1052C85.4041 18.7189 84.9748 19.2304 84.4025 19.5986C83.7279 20.0691 83.1555 20.3351 82.6649 20.4169C82.1948 20.4988 81.7042 20.4169 81.2545 20.2123C80.7639 19.9668 80.3346 19.6191 80.0076 19.169L81.7655 17.5324C81.9086 17.7574 82.0926 17.962 82.297 18.1256C82.4401 18.2279 82.6036 18.2893 82.7876 18.2893C82.9307 18.2893 83.0738 18.2279 83.176 18.1461C83.3804 18.0233 83.5235 17.7779 83.503 17.5324C83.4417 17.1846 83.2986 16.8368 83.0738 16.5708L80.212 12.5406V12.5406ZM86.3444 14.8115L88.2046 13.3385C88.409 13.584 88.6747 13.7681 88.9609 13.8704C89.3697 13.9932 89.799 13.9113 90.1465 13.6454C90.3918 13.4817 90.5962 13.2567 90.678 12.9703C90.8006 12.602 90.5962 12.1929 90.2283 12.0701C90.1669 12.0497 90.1056 12.0292 90.0443 12.0292C89.799 12.0087 89.3697 12.111 88.736 12.377C87.6935 12.8066 86.8759 12.9703 86.2626 12.9089C85.6698 12.8475 85.1179 12.5406 84.7909 12.0292C84.5456 11.6814 84.4229 11.2723 84.4025 10.8631C84.4025 10.3926 84.5251 9.92203 84.7909 9.53334C85.1792 8.98097 85.6494 8.51044 86.2217 8.1422C87.0803 7.54892 87.8366 7.26251 88.4907 7.26251C89.1449 7.26251 89.7581 7.56938 90.3305 8.20357L88.4907 9.65608C88.1228 9.18555 87.4278 9.08326 86.9576 9.4515L86.8963 9.51288C86.6919 9.63562 86.5488 9.81975 86.467 10.0448C86.4057 10.2084 86.4466 10.3926 86.5488 10.5358C86.6306 10.6381 86.7532 10.7199 86.8963 10.7199C87.0599 10.7403 87.346 10.6585 87.7549 10.4744C88.7769 10.0448 89.5537 9.79929 90.0852 9.71746C90.5349 9.63562 91.005 9.67654 91.4343 9.86066C91.8227 10.0243 92.1498 10.3107 92.3746 10.6585C92.6608 11.0677 92.8243 11.5587 92.8448 12.0701C92.8652 12.602 92.7221 13.1135 92.4359 13.5635C92.068 14.1159 91.5978 14.5864 91.0459 14.9547C89.9216 15.7321 89.0018 16.0594 88.2659 15.9366C87.4687 15.8139 86.8146 15.4047 86.3444 14.8115V14.8115Z" fill="black"/>
</g>
<defs>
<clipPath id="clip0_6_2132">
<rect width="113" height="42" fill="white"/>
</clipPath>
</defs>
</svg>
