<svg width="1086" height="694" viewBox="0 0 1086 694" fill="none" xmlns="http://www.w3.org/2000/svg">
<path d="M998.577 48.8106C1013.55 72.8791 1014.49 104.164 1003.27 140.21C992.049 176.254 968.674 216.993 935.106 259.886C867.973 345.67 760.141 439.983 627.516 522.473C494.892 604.963 362.624 659.988 255.999 682.278C202.685 693.424 155.809 696.379 118.518 690.51C81.2241 684.641 53.5813 669.96 38.6112 645.891C23.6411 621.823 22.6933 590.537 33.9164 554.492C45.139 518.448 68.5139 477.709 102.082 434.815C169.215 349.032 277.047 254.719 409.671 172.229C542.296 89.739 674.564 34.714 781.189 12.4236C834.503 1.27791 881.379 -1.67762 918.67 4.19136C955.964 10.0606 983.607 24.7422 998.577 48.8106Z" stroke="#A6A6A6"/>
<path d="M1085 315.603C1086.51 346.436 1072.87 376.594 1046.8 404.742C1020.74 432.892 982.278 458.999 934.244 481.706C838.178 527.118 703.914 558.883 554.224 566.213C404.534 573.543 267.808 555.049 167.765 519.241C117.742 501.336 76.9153 479.112 48.2235 453.644C19.5335 428.177 3.00713 399.496 1.49722 368.664C-0.0126838 337.831 13.6323 307.673 39.6967 279.525C65.7628 251.375 104.223 225.268 152.257 202.561C248.323 157.149 382.587 125.384 532.277 118.054C681.967 110.724 818.693 129.218 918.736 165.026C968.758 182.931 1009.59 205.155 1038.28 230.623C1066.97 256.09 1083.49 284.771 1085 315.603Z" stroke="#A6A6A6"/>
</svg>
