<svg width="24" height="24" viewBox="0 0 24 24" fill="none" xmlns="http://www.w3.org/2000/svg">
<g clip-path="url(#clip0_174_1492)">
<path d="M18.295 7.11511C18.6843 6.72575 18.6843 6.09447 18.295 5.70511C17.9056 5.31575 17.2743 5.31575 16.885 5.70511L12 10.5901L7.11498 5.70511C6.72562 5.31575 6.09435 5.31575 5.70498 5.70511C5.31562 6.09447 5.31562 6.72575 5.70498 7.11511L10.59 12.0001L5.70498 16.8851C5.31562 17.2745 5.31562 17.9057 5.70498 18.2951C6.09435 18.6845 6.72562 18.6845 7.11498 18.2951L12 13.4101L16.885 18.2951C17.2743 18.6845 17.9056 18.6845 18.295 18.2951C18.6843 17.9057 18.6843 17.2745 18.295 16.8851L13.41 12.0001L18.295 7.11511Z" fill="#39393B"/>
</g>
<defs>
<clipPath id="clip0_174_1492">
<rect width="24" height="24" fill="white"/>
</clipPath>
</defs>
</svg>
