<svg width="40" height="40" viewBox="0 0 40 40" fill="none" xmlns="http://www.w3.org/2000/svg">
<g clip-path="url(#clip0_125_191)">
<path d="M29.5096 12.8428C28.8601 12.1932 27.8069 12.1932 27.1574 12.8428C26.5087 13.4915 26.5077 14.5429 27.1551 15.1928L30.2835 18.3333H15.0002C14.0797 18.3333 13.3335 19.0795 13.3335 20C13.3335 20.9205 14.0797 21.6667 15.0002 21.6667H30.2835L27.1585 24.7917C26.5089 25.4413 26.507 26.4939 27.1543 27.1458C27.8049 27.801 28.864 27.8029 29.5168 27.15L36.6668 20L29.5096 12.8428ZM6.66683 8.33333H18.3335C19.254 8.33333 20.0002 7.58714 20.0002 6.66667C20.0002 5.74619 19.254 5 18.3335 5H6.66683C4.8335 5 3.3335 6.5 3.3335 8.33333V31.6667C3.3335 33.5 4.8335 35 6.66683 35H18.3335C19.254 35 20.0002 34.2538 20.0002 33.3333C20.0002 32.4129 19.254 31.6667 18.3335 31.6667H6.66683V8.33333Z" fill="#3636DB"/>
</g>
<defs>
<clipPath id="clip0_125_191">
<rect width="40" height="40" fill="white"/>
</clipPath>
</defs>
</svg>
